{"glyphs":{":":{"x_min":0,"x_max":135,"ha":135,"o":"m 69 258 q 23 254 23 218 q 23 179 65 178 q 109 179 111 213 q 115 253 69 258 z m 69 69 q 23 66 23 30 q 23 -9 65 -11 q 109 -10 111 24 q 115 64 69 69 z"},"$":{"x_min":0,"x_max":478,"ha":478,"o":"m 190 554 l 226 554 l 226 520 q 254 520 296 507 q 338 495 361 470 q 385 445 385 414 q 385 392 370 377 q 356 363 335 363 q 316 363 303 374 q 290 385 290 401 q 290 418 305 435 q 320 453 320 457 q 320 468 301 478 q 271 492 226 494 l 226 298 q 320 271 362 229 q 404 188 404 135 q 404 77 358 41 q 312 4 226 -1 l 226 -93 l 190 -93 l 190 -1 q 139 -1 99 13 q 59 28 40 53 q 21 77 21 105 q 21 132 35 148 q 50 163 73 163 q 94 163 108 151 q 122 139 122 118 q 122 98 102 84 q 79 68 79 62 q 79 50 103 40 q 135 24 190 23 l 190 230 q 26 274 26 382 q 26 439 71 477 q 115 515 190 520 z m 190 311 l 190 494 q 135 490 105 466 q 74 441 74 407 q 74 376 98 354 q 122 331 190 311 z m 226 217 l 226 23 q 286 28 318 54 q 350 80 350 116 q 350 148 324 173 q 299 197 226 217 z"},"?":{"x_min":0,"x_max":393,"ha":393,"o":"m 162 155 l 141 155 q 141 194 146 217 q 150 240 159 253 q 167 267 199 302 q 225 329 234 353 q 244 377 244 407 q 244 446 218 470 q 191 495 152 495 q 118 495 96 481 q 73 467 73 453 q 73 444 90 435 q 113 419 113 401 q 113 385 101 374 q 88 363 69 363 q 46 363 31 378 q 16 394 16 418 q 16 457 59 488 q 101 519 163 519 q 233 519 276 484 q 320 450 320 400 q 320 369 305 344 q 294 324 248 290 q 188 246 176 225 q 164 204 162 155 z m 152 83 q 172 83 186 71 q 201 59 201 43 q 201 25 186 13 q 172 0 152 0 q 131 0 118 12 q 104 25 104 43 q 104 60 118 71 q 131 83 152 83 z"},"<":{"x_min":0,"x_max":458,"ha":458,"o":"m 385 17 l 24 219 l 24 271 l 385 472 l 385 409 l 82 245 l 385 81 z"},"'":{"x_min":0,"x_max":150,"ha":150,"o":"m 69 471 q 29 467 29 433 q 29 396 66 395 l 83 396 l 83 389 l 87 394 q 81 355 59 351 q 42 348 47 335 q 51 325 69 327 q 103 337 110 390 l 110 416 q 109 466 69 471 z"},"=":{"x_min":0,"x_max":526,"ha":526,"o":"m 28 369 l 442 369 l 442 314 l 28 314 z m 28 176 l 442 176 l 442 122 l 28 122 z"},"a":{"x_min":0,"x_max":355,"ha":355,"o":"m 119 0 q 23 8 16 71 q 18 132 82 150 q 161 163 220 183 q 232 201 223 229 q 215 259 184 269 q 154 276 125 269 q 96 254 82 235 q 70 215 43 213 q 16 223 23 249 q 39 292 87 297 q 141 313 182 302 q 260 285 277 201 l 277 73 q 281 51 299 33 q 312 24 297 4 q 283 -10 262 -2 q 240 11 227 55 l 227 162 q 211 144 146 134 q 82 120 82 75 q 86 44 124 36 q 184 37 248 90 l 263 63 q 232 26 176 10 z"},"L":{"x_min":0,"x_max":443,"ha":443,"o":"m 36 -2 q 8 0 8 16 q 8 35 34 35 q 62 39 62 96 l 62 412 q 62 459 40 461 q 10 461 10 479 q 8 496 43 496 l 168 496 q 201 496 201 480 q 199 463 168 461 q 140 457 142 400 l 141 86 q 144 35 190 31 l 254 31 q 300 35 334 66 q 368 98 384 98 q 400 96 396 70 l 384 23 q 376 -8 343 -2 z"},"3":{"x_min":0,"x_max":295,"ha":295,"o":"m 61 10 q 12 1 20 27 q 76 41 119 62 q 172 98 178 154 q 172 246 94 252 q 62 246 44 206 q 40 189 23 189 q 10 196 14 227 q 30 282 106 303 q 217 301 234 217 l 234 189 q 234 115 156 59 l 88 27 q 203 23 229 -86 q 229 -213 111 -230 q 55 -229 37 -199 q 20 -170 25 -150 q 31 -131 50 -135 q 68 -139 69 -154 q 70 -170 51 -182 q 66 -203 94 -203 q 154 -193 164 -115 q 146 -14 61 10 z"},";":{"x_min":0,"x_max":139,"ha":139,"o":"m 72 260 q 23 256 23 222 q 23 183 68 182 q 116 183 118 215 q 121 255 72 260 z m 73 80 q 29 77 29 42 q 29 3 70 2 l 89 3 l 88 -4 l 93 1 q 86 -38 62 -43 q 43 -46 48 -59 q 53 -69 73 -67 q 110 -57 119 -3 l 119 24 q 118 75 73 80 z"},"J":{"x_min":0,"x_max":307,"ha":307,"o":"m -2 -101 q 0 -72 30 -72 q 59 -76 64 -101 q 60 -133 33 -127 q 47 -152 68 -158 q 90 -164 108 -152 q 127 -141 124 -111 q 121 -82 113 -57 q 105 -31 105 2 l 105 418 q 104 471 72 473 q 39 473 39 490 q 39 508 70 508 l 229 508 q 260 508 260 488 q 262 471 230 473 q 197 473 197 418 l 197 -76 q 197 -184 94 -184 q 10 -176 -2 -101 z"},"V":{"x_min":0,"x_max":594,"ha":594,"o":"m 311 129 l 430 434 q 447 477 391 480 q 363 480 361 496 q 361 514 389 514 l 516 514 q 549 514 551 496 q 547 475 512 479 q 484 477 469 436 l 295 12 q 283 -4 273 12 l 88 430 q 74 477 45 479 q 12 477 10 492 q 12 510 43 510 l 195 510 q 223 512 223 494 q 223 477 191 477 q 158 473 174 438 z"},"\"":{"x_min":0,"x_max":316,"ha":316,"o":"m 207 471 q 167 467 167 433 q 167 396 204 395 l 221 396 l 221 389 l 225 394 q 219 355 196 351 q 180 348 185 335 q 188 325 207 327 q 240 337 248 390 l 248 416 q 247 466 207 471 z m 69 471 q 29 467 29 433 q 29 396 66 395 l 83 396 l 83 389 l 87 394 q 81 355 59 351 q 42 348 47 335 q 51 325 69 327 q 103 337 110 390 l 110 416 q 109 466 69 471 z"},"7":{"x_min":0,"x_max":314,"ha":314,"o":"m 141 283 l 38 282 q 36 296 22 296 q 6 297 8 282 l 8 252 q 12 215 21 214 q 30 213 40 221 q 49 229 75 229 l 198 230 l 63 -172 q 49 -162 36 -168 q 22 -174 23 -195 q 24 -215 43 -223 q 63 -230 81 -221 q 98 -213 114 -174 l 262 260 q 264 281 243 283 z"},"S":{"x_min":0,"x_max":438,"ha":438,"o":"m 193 209 q 24 248 21 371 q 26 504 176 510 l 229 510 q 305 494 318 479 q 332 465 340 482 q 349 500 356 500 q 374 498 374 466 l 374 361 q 374 331 354 329 q 335 327 306 395 q 285 461 204 473 q 88 465 95 389 q 93 320 213 297 q 358 260 364 131 q 358 4 237 0 l 143 0 q 99 6 81 21 q 64 35 57 19 q 50 2 43 2 q 20 0 20 25 l 20 125 q 21 152 42 152 q 61 150 75 109 q 93 45 202 29 q 293 41 296 102 q 298 188 193 209 z"},"}":{"x_min":0,"x_max":334,"ha":334,"o":"m 306 299 l 306 219 q 268 218 244 199 q 221 179 213 146 q 205 112 205 31 q 204 -51 202 -77 q 197 -118 185 -143 q 173 -167 156 -182 q 138 -197 111 -205 q 92 -210 50 -210 l 23 -210 l 23 -134 l 38 -134 q 89 -134 105 -115 q 122 -97 122 -33 q 122 89 126 122 q 134 176 158 208 q 181 241 224 259 q 168 286 145 330 q 122 374 122 479 q 122 574 120 593 q 116 625 100 638 q 84 651 38 651 l 23 651 l 23 728 l 50 728 q 98 728 120 720 q 151 709 171 684 q 192 659 198 620 q 204 582 205 494 q 205 406 213 372 q 221 339 244 319 q 268 300 306 299 z"},"Z":{"x_min":0,"x_max":480,"ha":480,"o":"m 44 0 q 16 2 16 21 q 16 41 67 104 l 188 273 l 241 232 l 149 94 q 128 37 201 39 l 264 39 q 314 41 347 70 q 380 100 397 100 q 413 98 409 72 l 397 25 q 388 -6 355 0 z m 390 514 q 419 512 419 492 q 419 473 367 410 l 241 232 l 188 273 l 285 420 q 310 475 237 475 l 172 475 q 120 473 87 443 q 54 414 37 414 q 21 416 25 441 l 37 488 q 46 520 79 514 z"},"x":{"x_min":0,"x_max":399,"ha":399,"o":"m 237 0 q 225 1 225 15 q 223 29 235 31 q 248 32 237 49 l 146 159 l 210 164 l 317 49 q 329 35 344 34 q 357 29 355 14 q 357 -2 344 0 z m 25 -1 q 13 0 13 14 q 12 28 24 29 q 37 31 49 48 l 146 158 l 212 161 l 116 57 q 111 34 132 32 q 145 28 143 12 q 145 -3 132 -1 z m 37 318 q 24 316 24 303 q 22 289 35 287 q 47 284 60 269 l 149 154 l 211 159 l 130 261 q 124 281 143 284 q 156 289 154 304 q 156 320 143 318 z m 229 318 q 216 317 216 303 q 214 290 227 288 q 239 287 241 266 l 149 158 l 214 163 l 313 265 q 321 283 335 285 q 346 285 347 301 q 346 317 330 318 z"},")":{"x_min":0,"x_max":408,"ha":408,"o":"m 73 514 q 348 506 348 185 q 350 -148 90 -160 q 35 -166 35 -131 q 41 -100 100 -100 q 277 -82 291 183 q 273 438 79 454 q 22 456 16 486 q 16 514 73 514 z"},"&":{"x_min":0,"x_max":506,"ha":506,"o":"m 147 -6 q 29 2 11 103 q 0 210 105 260 q 204 323 208 353 q 215 398 160 410 q 101 408 103 357 q 134 307 191 236 l 332 69 q 347 54 375 51 q 404 51 406 29 q 406 5 375 3 l 323 3 q 288 5 285 25 q 283 45 254 78 l 156 206 q 68 297 51 364 q 51 447 162 456 q 268 449 263 349 q 239 276 160 240 q 74 192 70 124 q 77 64 147 57 q 191 53 252 107 q 301 162 327 244 q 311 252 312 263 q 312 273 313 286 q 314 299 342 301 l 426 301 q 461 301 463 271 q 459 242 389 246 q 336 131 294 73 q 235 -1 147 -6 z"},"_":{"x_min":0,"x_max":408,"ha":408,"o":"m -6 -75 l 416 -75 l 416 -125 l -6 -125 z"},"v":{"x_min":0,"x_max":424,"ha":424,"o":"m 143 320 q 162 320 164 305 q 162 289 143 289 q 123 285 133 256 l 213 88 l 273 240 q 279 281 244 285 q 223 287 223 305 q 223 320 244 320 l 359 320 q 379 320 379 303 q 381 283 363 287 q 338 287 324 264 l 209 4 q 195 -6 182 8 l 55 254 q 43 283 27 289 q 12 289 12 307 q 12 322 27 320 z"},"O":{"x_min":0,"x_max":553,"ha":553,"o":"m 265 0 q 40 8 16 221 l 16 287 q 16 504 250 518 q 495 494 505 258 l 505 209 q 484 4 265 0 z m 297 473 l 253 479 q 130 465 107 256 l 107 209 q 116 74 219 49 l 259 43 q 388 57 406 238 l 406 283 q 400 453 297 473 z"},"(":{"x_min":0,"x_max":412,"ha":412,"o":"m 302 512 q 27 504 27 183 q 25 -150 285 -162 q 340 -168 340 -133 q 334 -102 275 -102 q 98 -84 84 181 q 102 436 296 452 q 353 454 359 484 q 359 512 302 512 z"},"C":{"x_min":0,"x_max":537,"ha":537,"o":"m 289 -1 q 23 -8 14 246 q 21 502 246 506 l 312 506 q 406 490 425 473 q 443 455 467 496 q 492 494 492 462 l 492 357 q 492 327 468 325 q 438 326 416 389 q 365 475 297 475 q 229 477 169 426 q 109 375 113 246 q 115 139 167 89 q 219 39 287 35 q 350 39 390 80 q 430 121 443 149 q 457 178 481 178 l 480 74 q 445 45 399 24 q 354 2 289 -1 z"},"W":{"x_min":0,"x_max":893,"ha":893,"o":"m 299 137 l 404 367 l 383 424 q 365 467 338 471 q 312 469 312 484 q 311 504 338 504 l 486 504 q 518 504 520 488 q 520 469 488 471 q 451 469 467 428 l 596 143 l 707 412 q 727 461 676 473 q 643 471 643 488 q 641 510 670 508 l 811 508 q 844 508 844 492 q 842 475 814 475 q 781 473 754 422 l 582 14 q 570 -4 559 16 l 422 311 l 285 16 q 273 -2 264 16 l 80 424 q 64 467 35 471 q 12 471 10 488 q 8 504 35 504 l 184 504 q 213 504 215 486 q 213 469 182 469 q 154 461 168 428 z"},"A":{"x_min":0,"x_max":582,"ha":582,"o":"m 33 0 q 4 0 4 16 q 4 35 29 33 q 61 33 76 62 l 240 445 l 227 463 q 266 467 289 497 l 471 69 q 479 43 516 35 q 545 37 547 18 q 545 0 520 0 l 363 0 q 338 0 338 18 q 338 35 365 35 q 406 37 395 66 l 342 186 l 156 186 l 172 225 l 328 225 l 258 387 q 248 404 240 387 l 100 51 q 94 29 146 31 q 174 33 174 14 q 176 -4 145 0 z"},"f":{"x_min":0,"x_max":291,"ha":291,"o":"m 39 0 q 21 -1 20 18 q 20 35 37 33 q 62 35 64 64 l 64 236 q 64 260 41 260 q 16 256 14 279 q 12 305 41 307 q 62 307 62 328 l 62 391 q 66 500 189 521 l 260 521 q 359 514 361 443 q 361 408 326 406 q 295 410 291 438 q 289 480 232 484 q 152 479 156 393 l 156 336 q 156 307 186 307 l 238 307 q 268 307 270 281 q 270 260 240 262 l 189 262 q 154 262 154 236 l 154 68 q 156 37 186 35 q 207 33 207 16 q 207 -2 182 0 z"},"Q":{"x_min":0,"x_max":559,"ha":559,"o":"m 291 473 l 248 479 q 125 465 103 256 l 103 209 q 111 74 213 49 l 254 43 q 313 45 352 93 q 338 120 306 135 q 285 135 285 157 q 285 181 319 175 q 359 174 380 146 q 399 173 399 238 l 399 283 q 393 453 291 473 z m 258 0 q 36 8 12 221 l 12 287 q 12 504 244 518 q 486 494 497 258 l 497 209 q 490 122 438 67 q 453 22 486 22 q 514 21 514 -2 q 518 -17 483 -17 q 421 -17 395 33 q 352 2 258 0 z"},"w":{"x_min":0,"x_max":611,"ha":611,"o":"m 338 320 q 359 320 359 305 q 357 287 338 289 q 316 285 328 256 l 408 88 l 469 240 q 475 281 443 287 q 422 291 422 307 q 420 322 441 320 l 555 320 q 576 320 576 303 q 576 285 555 287 q 531 283 520 264 l 410 6 q 395 -12 377 6 l 250 254 q 236 283 223 287 q 201 289 203 305 q 201 322 223 320 z m 137 320 q 154 320 154 305 q 154 289 137 289 q 117 285 127 256 l 207 88 l 268 240 l 307 240 l 209 6 q 193 -12 176 6 l 49 254 q 39 285 21 289 q 2 291 2 307 q 2 324 21 320 z"},"-":{"x_min":0,"x_max":215,"ha":215,"o":"m 95 171 l 34 171 q 13 171 12 153 q 12 130 34 130 l 144 130 q 171 130 171 147 q 170 171 143 171 z"},"E":{"x_min":0,"x_max":432,"ha":432,"o":"m 37 0 q 10 2 10 18 q 10 37 37 37 q 64 41 62 96 l 62 422 q 61 461 37 463 q 12 463 10 482 q 10 498 44 498 l 240 498 q 316 502 324 475 l 342 426 q 348 396 330 395 q 311 395 281 431 q 252 467 215 469 l 172 469 q 139 467 141 402 l 141 260 l 209 260 q 234 260 236 286 q 238 312 256 312 q 273 312 273 287 l 273 195 q 273 172 258 172 q 240 172 237 195 q 234 219 207 217 l 141 217 l 141 92 q 141 37 168 33 l 244 33 q 293 41 324 70 q 355 100 371 100 q 387 98 383 72 l 371 25 q 363 -6 332 0 z"},"s":{"x_min":0,"x_max":379,"ha":379,"o":"m 178 1 q 103 0 64 34 l 63 18 q 64 -4 42 -4 q 21 -4 19 21 l 18 75 q 20 99 39 103 q 63 101 92 73 q 110 43 176 35 q 240 49 244 86 q 240 135 166 146 q 41 160 31 240 q 42 306 164 320 q 242 314 267 281 l 267 299 q 267 319 289 319 q 310 319 312 297 l 311 250 q 309 225 291 222 q 269 230 249 260 q 224 289 178 293 q 105 279 104 242 q 109 205 193 193 q 303 174 307 84 q 300 2 178 1 z"},">":{"x_min":0,"x_max":450,"ha":450,"o":"m 24 22 l 385 225 l 385 277 l 24 478 l 24 415 l 327 251 l 24 86 z"},"l":{"x_min":0,"x_max":213,"ha":213,"o":"m 33 0 q 20 2 20 18 q 18 33 31 33 q 47 33 47 57 l 47 217 q 51 436 36 445 q 21 455 37 470 q 68 490 111 502 q 129 506 131 473 l 131 61 q 133 35 148 35 q 162 31 162 16 q 162 -2 148 0 z"},"8":{"x_min":0,"x_max":350,"ha":350,"o":"m 166 -1 q 20 0 16 91 q 16 200 155 266 q 231 310 237 364 q 241 411 217 433 q 192 456 149 458 q 73 440 73 382 q 73 330 159 281 q 292 204 295 110 q 292 5 166 -1 l 161 33 q 227 43 229 115 q 223 165 157 204 q 34 262 21 351 q 18 485 155 498 q 295 483 291 362 q 287 270 159 214 q 71 167 62 107 q 61 68 94 49 q 126 31 161 33 z"},"\\":{"x_min":0,"x_max":297,"ha":297,"o":"m 8 516 l 203 0 l 260 0 l 64 516 z"},"e":{"x_min":0,"x_max":371,"ha":371,"o":"m 176 291 q 98 281 96 166 l 96 127 q 105 43 170 35 q 219 35 229 52 q 240 68 252 84 q 264 100 291 88 q 322 66 312 46 q 301 25 272 13 q 244 0 171 0 q 23 6 10 139 l 8 170 q 20 312 166 320 q 242 316 275 293 q 309 270 319 245 q 330 221 332 187 q 332 150 309 150 l 96 150 l 94 195 l 240 195 q 258 195 256 209 q 254 223 247 242 q 240 262 226 277 q 211 293 176 291 z"},"b":{"x_min":0,"x_max":381,"ha":381,"o":"m 185 2 q 23 -6 16 117 l 16 170 q 32 306 181 314 l 181 314 q 340 297 348 168 l 348 125 q 322 2 185 2 z m 180 281 q 100 281 98 168 l 98 102 q 107 39 189 35 q 268 43 277 137 l 277 162 q 273 266 180 281 z m 18 188 q 20 438 7 447 q -6 457 10 472 q 41 492 80 506 q 96 508 98 480 l 98 127 z"},"%":{"x_min":0,"x_max":632,"ha":632,"o":"m 122 509 q 171 509 202 474 q 232 439 232 377 q 232 316 201 282 q 170 249 123 249 q 76 249 45 283 q 14 318 14 379 q 14 438 45 473 q 76 509 122 509 z m 124 493 q 100 493 84 469 q 69 445 69 380 q 69 313 84 289 q 99 265 123 265 q 146 265 162 289 q 177 313 177 375 q 177 444 162 468 q 147 493 124 493 z m 469 500 l 501 500 l 120 8 l 88 8 z m 461 259 q 510 259 541 224 q 572 189 572 126 q 572 67 541 32 q 510 -2 462 -2 q 415 -2 384 33 q 353 67 353 129 q 353 188 384 223 q 416 259 461 259 z m 463 242 q 438 242 423 219 q 408 195 408 130 q 408 63 423 39 q 438 15 461 15 q 485 15 501 39 q 516 63 516 125 q 516 193 501 218 q 486 242 463 242 z"},"m":{"x_min":0,"x_max":617,"ha":617,"o":"m 443 0 q 426 2 426 18 q 424 33 441 31 q 461 33 465 58 l 465 202 q 467 271 391 278 q 326 269 324 209 l 299 215 q 305 311 412 312 q 543 303 541 202 l 541 58 q 543 37 561 35 q 578 33 580 16 q 580 0 559 0 z m 33 0 q 14 0 14 16 q 14 31 31 31 q 47 33 47 55 l 47 217 l 47 273 q 47 291 41 296 q 35 301 37 310 q 39 318 66 320 l 105 334 q 131 336 131 301 l 131 59 q 131 33 150 33 q 166 31 166 14 q 166 0 148 0 z m 250 0 q 232 2 232 18 q 230 33 248 33 q 270 33 271 56 l 271 202 q 273 271 197 278 q 133 269 131 209 l 105 215 q 111 312 219 312 q 350 304 348 198 l 348 58 q 350 39 367 35 q 383 33 383 18 q 383 0 365 0 z"},"#":{"x_min":0,"x_max":498,"ha":498,"o":"m 17 375 l 102 375 l 102 523 l 150 523 l 150 375 l 264 375 l 264 523 l 319 523 l 319 375 l 420 375 l 420 330 l 318 330 l 318 195 l 417 195 l 417 150 l 315 150 l 315 2 l 263 2 l 263 150 l 150 149 l 148 2 l 98 0 l 98 149 l 17 149 l 17 195 l 100 195 l 100 330 l 17 329 z m 150 330 l 150 195 l 264 195 l 264 330 z"},",":{"x_min":0,"x_max":146,"ha":146,"o":"m 73 80 q 29 77 29 42 q 29 3 70 2 l 89 3 l 88 -4 l 93 1 q 86 -38 62 -43 q 43 -46 48 -59 q 53 -69 73 -67 q 110 -57 119 -3 l 119 24 q 118 75 73 80 z"},"n":{"x_min":0,"x_max":432,"ha":432,"o":"m 250 -2 q 230 -2 230 14 q 230 31 250 29 q 270 31 271 54 l 271 200 q 273 269 197 277 q 133 267 131 208 l 105 213 q 111 310 219 311 q 350 302 348 202 l 348 56 q 350 31 367 31 q 383 31 383 14 q 385 -2 365 -2 z m 33 0 q 16 0 16 14 q 14 31 31 33 q 47 33 47 61 l 47 217 l 47 273 q 47 291 41 296 q 35 301 37 310 q 39 318 66 320 l 105 334 q 131 336 131 301 l 131 61 q 129 29 146 29 q 164 29 164 14 q 164 -2 148 0 z"},"h":{"x_min":0,"x_max":410,"ha":410,"o":"m 248 1 q 232 1 232 17 q 230 31 248 31 q 268 33 270 52 l 270 201 q 271 270 195 277 q 131 268 129 208 l 104 214 q 109 310 217 311 q 348 302 346 197 l 346 54 q 346 33 365 33 q 379 29 379 15 q 379 -2 363 1 z m 33 0 q 20 2 20 18 q 18 33 31 31 q 47 33 47 57 l 47 217 q 51 436 36 445 q 21 455 37 470 q 68 490 111 502 q 129 506 131 473 l 131 55 q 133 35 148 33 q 162 31 162 14 q 162 -2 148 0 z"},"z":{"x_min":0,"x_max":383,"ha":383,"o":"m 260 -1 l 39 -1 q 8 -5 23 35 l 209 245 q 242 287 207 289 l 76 289 q 55 287 45 265 q 35 247 20 251 q 6 258 18 287 q 27 320 64 318 l 294 318 q 320 316 314 287 l 127 57 q 105 37 137 35 l 248 35 q 270 32 287 53 q 295 75 316 66 q 330 53 314 26 q 297 -2 260 -1 z"},"B":{"x_min":0,"x_max":453,"ha":453,"o":"m 37 0 q 13 -2 12 18 q 12 33 37 33 q 61 37 61 66 l 61 451 q 62 479 37 482 q 6 480 6 496 q 6 514 38 510 l 232 510 q 357 502 369 367 q 366 245 242 250 l 129 250 l 129 270 l 168 270 q 277 268 285 367 q 277 477 189 484 l 154 484 q 127 480 129 447 l 129 72 q 127 35 160 29 l 217 29 q 311 41 314 139 q 309 248 203 254 l 185 250 l 185 270 l 248 266 q 410 260 416 129 q 410 0 253 0 l 144 0 z"},"K":{"x_min":0,"x_max":596,"ha":596,"o":"m 534 2 l 415 2 q 388 2 388 20 q 388 45 288 143 l 189 256 l 166 242 l 166 285 l 384 445 q 396 459 396 471 q 397 482 389 484 q 380 486 380 502 q 377 518 401 516 l 528 516 q 562 518 562 500 q 561 482 532 484 q 496 482 461 449 l 237 285 q 498 53 530 46 q 562 39 562 20 q 562 2 534 2 z m 43 0 q 15 0 12 18 q 12 35 39 35 q 81 37 81 74 l 81 426 q 81 477 45 480 q 15 480 12 498 q 15 516 45 516 l 185 516 q 213 516 213 498 q 211 480 189 479 q 164 475 166 447 l 166 66 q 167 37 189 33 q 213 33 213 18 q 215 0 191 0 z"},"R":{"x_min":0,"x_max":498,"ha":498,"o":"m 48 -2 q 15 -4 14 16 q 14 35 38 35 q 58 33 58 64 l 58 447 q 58 475 38 477 q 10 475 10 489 q 8 510 40 508 l 239 508 q 376 499 389 367 q 379 250 267 246 q 353 109 382 85 q 411 61 429 59 q 460 55 462 25 q 464 -2 431 0 l 375 0 q 331 2 303 67 q 275 133 197 250 l 135 250 l 135 268 l 193 268 q 285 268 295 359 q 295 469 209 480 l 161 480 q 133 477 135 447 l 135 76 q 133 35 165 33 q 201 37 199 18 q 199 -2 161 -2 z"},"T":{"x_min":0,"x_max":541,"ha":541,"o":"m 170 0 q 140 0 139 18 q 141 35 172 31 q 207 35 209 78 l 209 422 q 207 467 176 471 l 111 475 q 84 473 70 439 q 53 396 27 396 q 10 398 16 430 l 31 488 q 39 514 74 516 l 428 516 q 469 514 480 484 l 492 432 q 502 402 480 400 q 459 400 443 443 q 430 473 402 475 l 324 471 q 295 465 295 424 l 295 82 q 297 41 324 35 q 359 35 359 18 q 359 0 333 0 z"},"P":{"x_min":0,"x_max":432,"ha":432,"o":"m 49 -2 q 17 -4 14 14 q 14 35 39 33 q 64 39 64 70 l 64 453 q 64 480 45 480 q 12 477 10 492 q 10 510 42 508 l 234 510 q 373 502 375 369 q 367 246 248 250 l 139 250 l 139 268 l 188 268 q 277 270 285 377 q 283 473 189 484 l 156 484 q 131 480 139 449 l 139 74 q 137 35 166 33 q 193 35 195 18 q 197 -2 160 -2 z"},"|":{"x_min":0,"x_max":290,"ha":290,"o":"m 83 576 l 125 576 l 125 -115 l 83 -115 z"},"t":{"x_min":0,"x_max":279,"ha":279,"o":"m 143 2 q 80 4 76 96 l 76 262 l 30 262 q 8 260 10 281 q 8 309 35 305 q 80 309 80 355 q 78 404 111 406 q 141 408 145 357 l 146 330 q 146 307 166 307 l 215 307 q 244 307 244 285 q 244 262 219 262 l 149 262 l 149 84 q 151 49 180 45 q 199 45 204 56 q 209 66 223 63 q 236 61 236 37 q 226 0 171 2 z"},"M":{"x_min":0,"x_max":672,"ha":672,"o":"m 445 0 q 414 0 414 16 q 414 31 445 33 q 471 37 473 72 l 474 436 l 320 18 q 307 4 293 20 l 127 430 l 127 76 q 129 41 168 35 q 197 35 199 20 q 199 -2 168 2 l 39 0 q 12 0 12 20 q 14 37 41 35 q 72 37 72 82 l 72 438 q 72 479 43 484 q 18 482 18 498 q 18 514 45 516 l 150 516 q 179 514 195 496 l 334 146 l 459 488 q 473 518 506 516 l 609 516 q 631 518 631 498 q 631 480 604 482 q 576 480 574 434 l 574 74 q 574 35 602 33 q 627 35 627 18 q 627 0 602 0 z"},"g":{"x_min":0,"x_max":369,"ha":369,"o":"m 104 93 q 104 42 117 42 q 131 43 182 38 q 293 42 311 146 q 312 237 277 258 l 299 272 q 320 281 312 308 q 295 327 275 314 l 243 286 q 217 312 158 312 q 45 310 23 208 q 14 83 84 56 q 76 34 84 -3 q 135 -39 151 -44 q 168 -49 225 -68 q 256 -81 262 -128 q 258 -174 217 -183 l 162 -187 q 109 -181 102 -133 q 100 -83 135 -66 l 186 -49 l 148 -16 l 104 -30 q 51 -53 39 -122 q 41 -208 123 -227 q 191 -246 268 -214 q 326 -187 328 -126 q 322 -47 242 -26 q 174 -5 154 18 q 143 30 160 60 l 150 91 q 80 108 82 174 q 86 254 168 258 q 250 248 256 170 q 248 84 164 91 z"},"j":{"x_min":0,"x_max":186,"ha":186,"o":"m 87 471 q 43 467 43 428 q 43 386 84 385 q 126 386 128 422 q 131 465 87 471 z m 86 -215 q 55 -227 35 -211 l 16 -182 q 16 -164 35 -150 q 55 -133 53 -62 l 53 209 q 45 234 34 237 q 23 240 23 253 q 23 266 59 281 q 94 295 114 291 q 134 287 132 260 l 131 -70 q 135 -186 86 -215 z"},"i":{"x_min":0,"x_max":232,"ha":232,"o":"m 101 477 q 57 473 57 434 q 57 392 98 391 q 140 392 142 428 q 145 471 101 477 z m 37 -2 q 18 -1 16 18 q 18 35 37 33 q 59 33 61 57 l 61 215 q 59 240 48 243 q 37 246 37 259 q 37 271 72 286 q 107 301 127 297 q 147 292 146 266 l 145 62 q 146 37 170 35 q 193 35 195 18 q 197 -1 170 -1 z"},"y":{"x_min":0,"x_max":443,"ha":443,"o":"m 156 316 q 176 316 176 301 q 176 283 156 285 q 135 281 146 252 l 227 84 l 291 244 q 299 279 266 287 q 236 287 236 303 q 236 318 262 316 l 373 316 q 393 314 393 299 q 393 283 377 283 q 357 281 340 262 l 150 -188 q 135 -215 104 -213 q 72 -211 72 -186 q 74 -154 98 -154 q 125 -150 137 -115 l 191 10 l 68 250 q 59 279 39 283 q 18 283 18 303 q 18 318 41 316 z"},"@":{"x_min":0,"x_max":694,"ha":694,"o":"m 476 387 l 426 237 l 408 181 q 403 162 403 148 q 403 137 410 130 q 417 123 429 123 q 456 123 489 146 q 521 169 545 219 q 569 269 569 323 q 569 374 540 418 q 511 462 462 486 q 413 509 349 509 q 268 509 200 473 q 132 437 93 372 q 54 307 54 227 q 54 150 88 96 q 121 42 184 9 q 248 -23 325 -23 q 416 -23 490 22 q 564 67 599 144 l 624 144 q 594 61 511 7 q 428 -47 322 -47 q 190 -47 104 31 q 18 109 18 228 q 18 312 61 382 q 105 452 181 491 q 257 530 346 530 q 420 530 477 504 q 533 478 564 429 q 595 379 595 318 q 595 236 542 168 q 489 101 405 101 q 377 101 363 112 q 350 123 350 144 q 350 161 356 188 q 307 135 275 118 q 244 101 218 101 q 192 101 174 119 q 155 138 155 171 q 155 218 188 272 q 222 327 268 358 q 315 389 349 389 q 373 389 388 378 q 402 367 408 346 l 419 380 z m 353 375 q 309 375 261 302 q 213 230 213 181 q 213 161 224 149 q 236 137 253 137 q 276 137 304 158 q 342 186 368 236 q 395 286 395 327 q 395 351 384 363 q 372 375 353 375 z"},".":{"x_min":0,"x_max":141,"ha":141,"o":"m 66 87 q 20 83 20 43 q 20 0 63 -1 q 109 0 111 37 q 114 81 66 87 z"},"p":{"x_min":0,"x_max":406,"ha":406,"o":"m 196 311 q 344 305 367 170 l 367 139 q 354 8 200 -2 l 200 -2 q 42 5 23 145 l 23 180 q 55 309 196 311 z m 203 33 q 281 37 287 150 l 287 172 q 283 283 184 281 q 107 273 100 174 l 98 148 q 107 33 203 33 z m 88 314 q 100 287 98 96 q 94 -123 108 -133 q 123 -143 107 -157 q 76 -178 45 -188 q 25 -191 21 -162 l 21 234 q 18 270 6 285 q -6 301 20 312 z"},"X":{"x_min":0,"x_max":600,"ha":600,"o":"m 354 0 q 328 0 328 18 q 328 35 355 33 q 393 41 377 70 l 236 256 l 385 436 q 406 469 363 479 q 332 477 330 496 q 330 516 359 516 l 510 516 q 539 516 541 496 q 541 479 512 480 q 482 471 463 443 l 324 268 l 468 80 q 492 41 521 35 q 545 37 545 20 q 545 -2 516 0 z m 39 -2 q 9 -2 8 16 q 8 31 37 35 q 62 37 84 61 l 236 256 l 86 445 q 76 471 41 479 q 12 477 12 496 q 10 514 41 514 l 199 514 q 229 516 229 496 q 229 479 199 480 q 166 477 184 451 l 324 267 l 168 70 q 152 41 193 35 q 221 35 221 18 q 221 0 195 -2 z"},"*":{"x_min":0,"x_max":447,"ha":447,"o":"m 214 342 q 230 347 243 354 q 253 359 278 378 q 304 399 316 404 q 327 409 338 409 q 356 409 369 398 q 381 387 381 370 q 381 353 366 341 q 351 330 320 330 l 304 330 l 276 332 q 249 332 220 323 q 242 298 282 274 q 308 259 315 248 q 323 237 323 225 q 323 208 311 196 q 299 185 284 185 q 267 185 254 196 q 242 207 234 236 q 225 270 218 285 q 213 297 204 309 q 194 297 188 285 q 184 275 175 245 q 165 208 157 200 q 146 186 124 186 q 104 186 93 196 q 81 206 81 222 q 81 250 122 274 q 152 293 159 298 q 169 306 184 323 q 162 331 132 331 l 112 330 l 91 330 q 57 330 42 341 q 26 353 26 373 q 26 388 38 398 q 49 409 66 409 q 91 409 128 379 q 148 363 162 355 q 172 350 192 342 l 192 355 q 192 374 181 402 q 163 446 163 459 q 163 478 175 491 q 187 503 204 503 q 220 503 232 492 q 244 480 244 463 q 244 452 227 407 q 216 377 214 342 z"},"Y":{"x_min":0,"x_max":543,"ha":543,"o":"m 166 0 q 136 0 137 20 q 137 37 170 33 q 203 35 203 68 l 203 283 l 295 283 l 295 68 q 295 35 328 33 q 355 33 355 18 q 355 0 329 0 z m 203 283 l 203 230 l 84 434 q 59 479 39 482 q 14 480 14 498 q 14 516 39 516 l 182 516 q 211 516 211 498 q 211 480 182 482 q 150 475 178 428 l 269 283 z m 295 283 l 295 256 l 412 441 q 436 477 459 479 q 486 479 486 498 q 484 518 459 518 l 338 518 q 312 518 312 498 q 314 480 340 484 q 373 477 363 441 l 269 283 z"},"c":{"x_min":0,"x_max":369,"ha":369,"o":"m 186 291 q 104 277 102 166 l 102 131 q 111 49 180 35 q 229 35 241 52 q 254 68 265 84 q 275 100 307 88 q 332 70 320 49 q 309 27 281 14 q 254 0 181 0 q 31 6 18 133 l 18 168 q 25 307 176 320 q 256 318 286 297 q 316 275 323 254 q 330 232 303 221 q 266 213 259 232 q 252 252 241 270 q 230 287 186 291 z"},"!":{"x_min":0,"x_max":206,"ha":206,"o":"m 86 152 l 66 152 q 65 213 62 243 q 56 292 42 360 q 26 436 26 459 q 26 489 40 504 q 54 519 77 519 q 100 519 113 504 q 127 490 127 460 q 127 435 111 360 q 97 294 92 251 q 87 208 86 152 z m 77 78 q 97 78 111 65 q 125 53 125 36 q 125 20 110 7 q 96 -6 77 -6 q 57 -6 42 7 q 28 19 28 36 q 28 54 42 66 q 56 78 77 78 z"},"/":{"x_min":0,"x_max":334,"ha":334,"o":"m 262 516 l 66 0 l 10 0 l 205 516 z"},"[":{"x_min":0,"x_max":278,"ha":278,"o":"m 68 -199 l 68 716 l 262 716 l 262 643 l 156 643 l 156 -126 l 262 -126 l 262 -199 z"},"6":{"x_min":0,"x_max":330,"ha":330,"o":"m 152 -2 q 32 6 15 149 q 19 271 72 347 q 125 428 246 500 q 262 488 254 463 q 154 396 133 360 q 111 324 106 305 q 102 286 161 288 q 267 273 277 148 q 278 18 152 -2 l 148 49 q 232 47 233 152 q 229 230 156 242 q 77 247 65 155 q 70 62 148 49 z"},"r":{"x_min":0,"x_max":326,"ha":326,"o":"m 287 255 q 266 235 250 246 q 234 257 195 259 q 129 259 127 201 l 102 207 q 107 300 219 310 q 277 304 293 290 q 309 276 287 255 z m 29 0 q 14 0 14 16 q 14 31 29 33 q 43 35 43 56 l 43 212 l 43 268 q 43 285 37 290 q 31 294 33 303 q 35 312 62 313 l 102 327 q 127 329 127 294 l 127 62 q 127 35 145 35 q 160 31 160 14 q 162 -2 145 0 z"},"2":{"x_min":0,"x_max":316,"ha":316,"o":"m 229 0 l 44 -1 q 14 1 33 35 q 59 72 120 96 q 170 119 178 178 q 178 246 108 253 q 64 246 46 206 q 42 189 25 189 q 12 196 16 227 q 32 282 108 303 q 219 301 236 215 l 236 189 q 236 115 170 82 q 125 64 117 47 q 166 47 200 59 q 234 70 245 68 q 256 66 256 29 q 253 -4 229 0 z"},"{":{"x_min":0,"x_max":334,"ha":334,"o":"m 28 299 q 65 300 89 319 q 113 338 121 372 q 128 406 129 487 q 129 569 132 595 q 136 636 148 661 q 160 686 178 700 q 195 715 223 723 q 241 728 283 728 l 311 728 l 311 651 l 295 651 q 245 651 228 633 q 211 615 211 551 q 211 423 206 390 q 197 337 176 309 q 155 281 109 259 q 163 236 187 190 q 211 144 211 39 q 211 -56 213 -74 q 217 -107 233 -121 q 249 -134 295 -134 l 311 -134 l 311 -210 l 283 -210 q 235 -210 214 -203 q 183 -191 162 -166 q 142 -141 135 -103 q 129 -64 129 24 q 128 112 121 146 q 113 179 89 199 q 65 218 28 219 z"},"9":{"x_min":0,"x_max":318,"ha":318,"o":"m 138 287 q 258 279 271 133 q 271 15 218 -62 q 165 -143 44 -215 q 28 -203 36 -178 q 136 -111 157 -75 q 179 -39 184 -20 q 188 0 129 -2 q 23 12 12 140 q 12 268 138 287 l 142 236 q 58 238 57 133 q 61 55 134 43 q 213 39 225 130 q 220 223 142 236 z"}," ":{"x_min":0,"x_max":207,"ha":207,"o":""},"I":{"x_min":0,"x_max":271,"ha":271,"o":"m 43 0 q 13 0 12 18 q 12 35 43 35 q 78 35 80 74 l 80 434 q 80 477 45 480 q 14 479 14 496 q 14 516 45 516 l 203 516 q 234 516 234 498 q 236 479 203 480 q 172 477 172 430 l 172 76 q 172 35 203 35 q 232 35 232 18 q 232 0 206 0 z"},"H":{"x_min":0,"x_max":584,"ha":584,"o":"m 357 0 q 328 0 324 18 q 324 35 357 35 q 396 37 395 81 l 395 225 l 172 225 l 172 270 l 395 270 l 395 422 q 393 475 359 480 q 328 480 328 498 q 328 516 359 516 l 518 516 q 549 516 551 494 q 551 477 516 479 q 486 477 486 424 l 488 81 q 486 37 521 37 q 547 37 549 18 q 549 -2 520 0 z m 43 -2 q 13 -2 12 18 q 12 33 41 31 q 80 31 80 79 l 80 432 q 80 477 43 479 q 14 477 14 494 q 14 514 45 514 l 203 514 q 234 514 234 496 q 234 479 201 477 q 172 475 172 428 l 173 79 q 174 35 203 33 q 229 33 229 16 q 232 -2 206 -2 z"},"4":{"x_min":0,"x_max":320,"ha":320,"o":"m 137 -4 l 33 -4 q 6 -2 17 26 l 192 277 q 220 303 225 268 l 225 33 l 248 35 q 271 33 271 14 q 269 -4 248 -4 l 225 -2 l 225 -147 q 225 -185 203 -188 q 183 -185 183 -147 l 183 -4 l 137 -4 l 141 34 l 186 35 l 186 176 q 186 198 169 176 l 84 51 q 65 35 90 34 l 141 34 z"},"~":{"x_min":0,"x_max":450,"ha":450,"o":"m 356 345 l 373 345 q 372 287 348 254 q 324 221 288 221 q 271 221 253 228 q 235 234 166 270 q 117 295 96 295 q 48 295 37 222 l 20 222 q 22 283 45 314 q 68 346 102 346 q 118 346 136 339 q 170 327 226 296 q 256 280 274 273 q 285 270 297 270 q 321 270 337 289 q 353 308 356 345 z"},"D":{"x_min":0,"x_max":510,"ha":510,"o":"m 38 0 q 15 0 14 18 q 14 35 37 33 q 64 35 64 64 l 64 426 q 64 457 41 459 q 12 459 12 475 q 14 488 42 488 l 196 488 q 459 488 469 236 q 465 0 198 0 l 129 0 l 129 29 l 189 29 q 363 47 371 234 q 354 443 189 457 l 129 457 l 129 244 l 129 0 z"},"^":{"x_min":0,"x_max":444,"ha":444,"o":"m 214 515 l 380 265 l 331 265 l 208 457 l 84 265 l 35 265 l 203 515 z"},"0":{"x_min":0,"x_max":365,"ha":365,"o":"m 178 0 q 16 0 16 144 q 18 299 167 299 q 318 293 314 139 q 301 5 179 0 l 169 49 q 261 54 266 141 q 268 253 166 261 q 62 255 62 151 q 72 52 169 49 z"},"F":{"x_min":0,"x_max":393,"ha":393,"o":"m 41 0 q 14 2 14 20 q 14 35 41 33 q 66 35 64 84 l 64 424 q 64 463 39 463 q 14 465 14 480 q 14 498 48 498 l 244 498 q 320 502 328 475 l 346 426 q 352 396 334 395 q 314 395 287 430 q 260 465 221 469 l 174 469 q 143 467 145 398 l 145 260 l 209 260 q 238 260 240 286 q 242 312 260 312 q 277 312 277 287 l 277 195 q 277 172 262 172 q 244 172 241 195 q 238 219 211 217 l 145 217 l 145 80 q 145 37 176 33 q 209 31 211 16 q 211 -2 176 0 z"},"`":{"x_min":0,"x_max":243,"ha":243,"o":"m 185 385 l 176 376 l 71 442 q 30 469 30 485 q 30 495 39 503 q 49 512 61 512 q 82 512 99 491 z"},"k":{"x_min":0,"x_max":432,"ha":432,"o":"m 37 0 q 20 0 20 16 q 20 31 35 31 q 53 31 51 55 l 51 225 q 55 436 40 445 q 25 455 41 470 q 72 490 115 502 q 133 506 135 473 l 135 64 q 135 35 154 35 q 170 33 172 16 q 174 -2 152 0 z m 135 207 l 234 285 q 215 287 219 300 q 223 312 253 315 l 312 316 q 342 312 342 295 q 340 281 324 281 q 309 281 275 258 l 156 178 l 320 57 q 344 39 363 35 q 383 33 383 16 q 383 -4 361 0 l 270 0 q 246 0 244 16 q 242 31 273 35 l 135 131 z"},"u":{"x_min":0,"x_max":432,"ha":432,"o":"m 143 318 q 160 316 160 301 q 160 285 141 285 q 123 285 121 258 l 121 117 q 119 43 195 35 q 260 45 262 105 l 287 100 q 281 2 174 0 q 41 2 45 117 l 45 256 q 43 281 27 283 q 12 285 12 303 q 10 320 27 318 z m 359 316 q 379 316 379 299 q 379 281 363 281 q 344 281 346 258 l 346 100 l 346 43 q 346 25 352 21 q 357 16 355 7 q 354 -2 326 -4 l 287 -18 q 262 -20 262 16 l 262 260 q 262 281 242 283 q 225 283 225 301 q 225 318 244 316 z"},"]":{"x_min":0,"x_max":278,"ha":278,"o":"m 213 -199 l 19 -199 l 19 -126 l 125 -126 l 125 643 l 19 643 l 19 716 l 213 716 z"},"U":{"x_min":0,"x_max":588,"ha":588,"o":"m 279 31 q 396 49 395 150 l 395 447 q 393 482 371 482 q 342 480 340 496 q 340 516 367 516 l 512 516 q 539 516 539 500 q 541 482 516 480 q 490 479 490 443 l 490 170 q 486 0 280 0 q 74 0 74 164 l 74 441 q 72 477 39 482 q 12 480 12 494 q 10 514 37 512 l 189 512 q 215 512 217 494 q 217 477 193 479 q 164 479 164 439 l 164 148 q 166 49 279 31 z"},"o":{"x_min":0,"x_max":391,"ha":391,"o":"m 173 0 q 31 7 14 139 l 12 168 q 21 304 169 312 l 169 312 q 332 305 338 166 l 338 137 q 330 12 173 0 z m 160 279 q 88 270 82 166 l 82 141 q 92 39 180 29 q 258 39 266 141 l 266 166 q 258 281 160 279 z"},"N":{"x_min":0,"x_max":586,"ha":586,"o":"m 453 14 l 121 408 l 121 72 q 123 43 158 35 q 184 37 185 20 q 185 -2 160 0 l 41 0 q 15 0 14 20 q 16 37 41 35 q 74 41 74 76 l 74 426 q 70 469 41 477 q 12 480 12 496 q 12 516 41 516 l 127 516 q 165 514 182 475 l 436 174 l 436 434 q 434 479 404 484 q 381 482 379 498 q 379 516 407 516 l 515 516 q 541 518 539 500 q 539 480 514 482 q 482 479 482 430 l 484 31 q 482 -4 453 14 z"},"+":{"x_min":0,"x_max":553,"ha":553,"o":"m 22 294 l 222 294 l 222 500 l 277 500 l 277 294 l 477 294 l 477 238 l 277 238 l 277 33 l 222 33 l 222 238 l 22 238 z"},"G":{"x_min":0,"x_max":580,"ha":580,"o":"m 285 -3 q 12 -8 10 250 q 12 506 242 518 l 303 518 q 408 501 422 489 q 436 477 461 516 q 486 514 488 487 l 488 369 q 492 336 464 332 q 440 330 420 395 q 385 480 281 488 q 203 490 154 432 q 105 373 102 254 q 105 143 159 88 q 213 33 285 35 q 344 39 365 62 q 387 86 391 113 q 395 141 395 160 q 395 180 367 182 q 340 184 338 201 q 338 221 375 219 l 523 219 q 555 219 555 201 q 555 182 517 182 q 479 182 480 142 l 479 101 q 479 58 456 56 q 434 54 392 27 q 350 0 285 -3 z"},"q":{"x_min":0,"x_max":418,"ha":418,"o":"m 185 312 q 37 307 14 172 l 14 145 q 27 10 181 0 l 181 0 q 339 7 357 146 l 357 182 q 326 311 185 312 z m 178 35 q 100 39 94 152 l 94 174 q 98 285 197 283 q 273 275 281 176 l 283 150 q 273 35 178 35 z m 293 316 q 281 289 283 98 q 287 -121 272 -131 q 258 -141 273 -155 q 305 -176 336 -186 q 355 -189 359 -160 l 359 236 q 363 271 375 287 q 387 303 361 314 z"},"d":{"x_min":0,"x_max":393,"ha":393,"o":"m 169 -2 q 23 4 10 133 l 10 170 q 17 302 165 311 l 165 311 q 323 304 332 164 l 332 129 q 311 0 169 -2 z m 164 277 q 84 271 80 164 l 80 135 q 90 33 172 29 q 252 41 258 137 l 258 162 q 258 277 164 277 z m 270 -4 q 258 23 260 215 q 264 434 249 443 q 234 453 250 468 q 281 488 312 498 q 332 502 334 473 l 334 78 q 340 41 352 25 q 363 10 338 -2 z"},"1":{"x_min":0,"x_max":238,"ha":238,"o":"m 37 0 q 16 0 16 13 q 16 25 37 25 q 65 25 65 48 l 65 252 q 65 280 39 280 q 16 280 16 291 q 16 305 39 305 l 155 305 q 178 305 178 292 q 178 280 155 280 q 131 280 131 251 l 131 51 q 131 25 156 25 q 176 25 176 13 q 176 0 157 0 z"},"5":{"x_min":0,"x_max":303,"ha":303,"o":"m 150 285 l 82 289 q 57 285 47 270 l 14 111 q 10 76 41 80 l 107 72 q 195 59 188 -49 q 186 -150 80 -201 q 64 -211 65 -220 q 66 -229 84 -229 q 232 -184 244 -29 q 242 111 139 121 l 88 123 q 62 121 62 143 l 78 219 q 86 240 107 236 l 223 221 q 244 221 246 240 l 252 303 q 256 324 244 326 q 232 328 227 314 q 217 285 199 283 z"}}}
